<svg width="232" height="32" viewBox="0 0 232 32" fill="none" xmlns="http://www.w3.org/2000/svg">
<g clip-path="url(#clip0_527_3326)">
<path d="M31.6812 7.9625C31.3499 3.775 28.2312 0.65 24.0374 0.31875C18.6249 -0.10625 13.3687 -0.10625 7.95615 0.31875C3.76865 0.65 0.643652 3.76875 0.312402 7.9625C-0.112598 13.375 -0.112598 18.6313 0.312402 24.0438C0.643652 28.2313 3.7624 31.3563 7.95615 31.6875C13.3687 32.1125 18.6249 32.1125 24.0374 31.6875C28.2249 31.3563 31.3499 28.2375 31.6812 24.0438C32.1062 18.6313 32.1062 13.3688 31.6812 7.9625Z" fill="url(#paint0_radial_527_3326)"/>
<path d="M16.1622 7.06885C11.3247 7.06885 7.38721 11.0063 7.38721 15.8438C7.38721 20.6813 11.3247 24.6188 16.1622 24.6188C20.9997 24.6188 24.9372 20.6813 24.9372 15.8438C24.9372 11.0063 20.9997 7.06885 16.1622 7.06885ZM16.1622 10.2126C16.8372 10.2126 17.4872 10.3313 18.0872 10.5501C18.1622 10.9376 18.1997 11.3251 18.1997 11.7251C18.1997 15.1188 15.4372 17.8813 12.0435 17.8813C11.6435 17.8813 11.2497 17.8438 10.8685 17.7688C10.6497 17.1688 10.531 16.5188 10.531 15.8438C10.531 12.7376 13.056 10.2126 16.1622 10.2126ZM16.1622 21.4688C14.6872 21.4688 13.3435 20.9001 12.3372 19.9688C16.656 19.8188 20.1372 16.3376 20.2872 12.0188C21.2185 13.0251 21.7872 14.3688 21.7872 15.8438C21.7872 18.9438 19.2622 21.4688 16.1622 21.4688Z" fill="white"/>
</g>
<path d="M53.1779 7.64945C57.7093 7.64945 59.6247 10.2889 59.6247 13.8393C59.6247 17.3897 57.7093 20.0525 53.1779 20.0525H47.8523V24H44.3953V7.64945H53.1779ZM47.8523 16.9693H52.7574C55.0232 16.9693 56.1677 16.0116 56.1677 13.8393C56.1677 11.6904 55.0232 10.7093 52.7574 10.7093H47.8523V16.9693ZM65.3968 24.3504C62.6873 24.3504 61.099 23.0423 61.099 20.4963C61.099 18.1138 62.5004 16.8525 65.6304 16.8525H70.1852V15.8014C70.1852 14.5167 69.4844 14.0262 67.499 14.0262C65.6304 14.0262 64.8829 14.4466 64.7428 15.451H61.7763C61.6595 12.4145 63.9953 11.5035 67.5457 11.5035C71.8202 11.5035 73.5721 12.8583 73.5721 15.5444V24H70.6991L70.3954 22.2482H70.2786C69.3677 23.6029 67.4523 24.3504 65.3968 24.3504ZM66.5413 21.8044H66.7282C68.6669 21.8044 70.1852 20.87 70.1852 19.5386V18.9547H66.1676C65.0932 18.9547 64.5092 19.4218 64.5092 20.3328C64.5092 21.2438 65.0932 21.8044 66.5413 21.8044ZM79.668 24H76.3044V11.8539H79.5512L79.668 13.5356L79.3409 14.2597C80.1585 12.6714 81.3264 11.5035 83.6622 11.5035C86.6753 11.5035 88.1002 13.5123 88.1002 16.4554V17.4831H84.9468V17.0861C84.9468 15.5444 84.2928 14.4466 82.4943 14.4466C80.6256 14.4466 79.668 15.5444 79.668 17.5299V24ZM99.1578 17.5299L104.647 24H100.699L97.1957 19.8423L93.692 24H90.5153V7.41587H93.8789V17.3663L93.8088 19.5386H93.9022L95.5606 17.4131L100.045 11.8539H103.946L99.1578 17.5299Z" fill="#FF4866"/>
<path d="M120.36 7.64945V10.686H109.942V14.54H119.963V17.2729H109.942V20.9635H120.36V24H106.485V7.64945H120.36ZM129.054 27.3635H125.597L127.092 24.0234L126.414 22.5985L121.673 11.8539H125.176L128.703 20.2394H128.82L132.347 11.8539H135.851L129.054 27.3635ZM149.547 18.978H139.76C140.064 20.7299 141.162 21.7576 143.264 21.7576C144.549 21.7576 145.553 21.3606 145.997 20.3795H149.197C148.706 22.5051 146.558 24.3504 143.054 24.3504C138.709 24.3504 136.374 21.5474 136.374 17.9269C136.374 14.3298 138.756 11.5035 143.054 11.5035C147.282 11.5035 149.898 14.2364 149.547 18.978ZM143.054 14.0028C141.068 14.0028 139.971 15.0539 139.714 16.9459H146.277C145.927 14.8437 144.852 14.0028 143.054 14.0028Z" fill="#7F56D9"/>
<defs>
<radialGradient id="paint0_radial_527_3326" cx="0" cy="0" r="1" gradientUnits="userSpaceOnUse" gradientTransform="translate(2.42091 2.96935) rotate(90) scale(37.5406)">
<stop stop-color="#FFA484"/>
<stop offset="0.1517" stop-color="#FF7C77"/>
<stop offset="0.2909" stop-color="#FF606E"/>
<stop offset="0.4116" stop-color="#FF4E68"/>
<stop offset="0.5" stop-color="#FF4866"/>
<stop offset="0.6114" stop-color="#FB4768"/>
<stop offset="0.7099" stop-color="#F1456C"/>
<stop offset="0.8036" stop-color="#DF4274"/>
<stop offset="0.8943" stop-color="#AF8AFF"/>
<stop offset="1" stop-color="#702EFF"/>
</radialGradient>
<clipPath id="clip0_527_3326">
<rect width="32" height="32" fill="white"/>
</clipPath>
</defs>
</svg>
