<svg width="142" height="76" viewBox="0 0 142 76" fill="none" xmlns="http://www.w3.org/2000/svg">
<g clip-path="url(#clip0_527_4917)">
<path d="M89.7089 9.49973C89.3137 4.5038 85.5928 0.775489 80.5894 0.380288C74.132 -0.126763 67.861 -0.126763 61.4035 0.380288C56.4076 0.775489 52.6793 4.49634 52.2841 9.49973C51.777 15.9572 51.777 22.2282 52.2841 28.6856C52.6793 33.6816 56.4002 37.4099 61.4035 37.8051C67.861 38.3121 74.132 38.3121 80.5894 37.8051C85.5854 37.4099 89.3137 33.689 89.7089 28.6856C90.2159 22.2282 90.2159 15.9497 89.7089 9.49973Z" fill="url(#paint0_radial_527_4917)"/>
<path d="M71.1942 8.43359C65.4228 8.43359 60.7251 13.1313 60.7251 18.9027C60.7251 24.6741 65.4228 29.3718 71.1942 29.3718C76.9656 29.3718 81.6633 24.6741 81.6633 18.9027C81.6633 13.1313 76.9656 8.43359 71.1942 8.43359ZM71.1942 12.1843C71.9995 12.1843 72.775 12.326 73.4908 12.5869C73.5803 13.0492 73.6251 13.5116 73.6251 13.9888C73.6251 18.0377 70.3292 21.3335 66.2803 21.3335C65.8031 21.3335 65.3333 21.2888 64.8784 21.1993C64.6175 20.4835 64.4758 19.708 64.4758 18.9027C64.4758 15.1967 67.4883 12.1843 71.1942 12.1843ZM71.1942 25.6136C69.4344 25.6136 67.8313 24.9351 66.6307 23.8241C71.7833 23.6451 75.9366 19.4918 76.1156 14.3392C77.2266 15.5398 77.9052 17.1429 77.9052 18.9027C77.9052 22.6012 74.8927 25.6136 71.1942 25.6136Z" fill="white"/>
</g>
<path d="M13.4892 49.7176C19.4367 49.7176 21.9506 53.1819 21.9506 57.8418C21.9506 62.5017 19.4367 65.9967 13.4892 65.9967H6.49934V71.1777H1.96207V49.7176H13.4892ZM6.49934 61.9499H12.9374C15.9111 61.9499 17.4133 60.6929 17.4133 57.8418C17.4133 55.0214 15.9111 53.7337 12.9374 53.7337H6.49934V61.9499ZM29.5265 71.6376C25.9703 71.6376 23.8856 69.9208 23.8856 66.5791C23.8856 63.4521 25.725 61.7966 29.8331 61.7966H35.8113V60.417C35.8113 58.7309 34.8916 58.0871 32.2857 58.0871C29.8331 58.0871 28.8521 58.6389 28.6681 59.9572H24.7747C24.6214 55.9717 27.6871 54.7761 32.347 54.7761C37.9573 54.7761 40.2566 56.5542 40.2566 60.0798V71.1777H36.4857L36.0872 68.8784H35.9339C34.7383 70.6566 32.2244 71.6376 29.5265 71.6376ZM31.0288 68.296H31.274C33.8186 68.296 35.8113 67.0697 35.8113 65.3222V64.5558H30.5382C29.128 64.5558 28.3616 65.1689 28.3616 66.3645C28.3616 67.5602 29.128 68.296 31.0288 68.296ZM48.2574 71.1777H43.8428V55.236H48.1041L48.2574 57.4433L47.8282 58.3937C48.9012 56.309 50.4341 54.7761 53.4998 54.7761C57.4546 54.7761 59.3247 57.4126 59.3247 61.2754V62.6244H55.186V62.1032C55.186 60.0798 54.3276 58.6389 51.967 58.6389C49.5144 58.6389 48.2574 60.0798 48.2574 62.6857V71.1777ZM73.8378 62.6857L81.0423 71.1777H75.8612L71.2626 65.7207L66.664 71.1777H62.4946V49.4111H66.9093V62.4711L66.8173 65.3222H66.9399L69.1166 62.5324L75.0028 55.236H80.1225L73.8378 62.6857Z" fill="#FF4866"/>
<path d="M101.666 49.7176V53.7031H87.9926V58.7615H101.145V62.3484H87.9926V67.1923H101.666V71.1777H83.4553V49.7176H101.666ZM113.076 75.5924H108.539L110.501 71.2084L109.612 69.3383L103.389 55.236H107.987L112.616 66.2419H112.77L117.399 55.236H121.998L113.076 75.5924ZM139.974 64.5864H127.129C127.527 66.8857 128.968 68.2346 131.727 68.2346C133.414 68.2346 134.732 67.7135 135.314 66.4259H139.514C138.871 69.2157 136.05 71.6376 131.451 71.6376C125.749 71.6376 122.683 67.9587 122.683 63.2068C122.683 58.4856 125.811 54.7761 131.451 54.7761C137 54.7761 140.434 58.363 139.974 64.5864ZM131.451 58.0564C128.846 58.0564 127.405 59.436 127.067 61.9192H135.682C135.222 59.1601 133.812 58.0564 131.451 58.0564Z" fill="#7F56D9"/>
<defs>
<radialGradient id="paint0_radial_527_4917" cx="0" cy="0" r="1" gradientUnits="userSpaceOnUse" gradientTransform="translate(54.7997 3.54261) rotate(90) scale(44.7882)">
<stop stop-color="#FFA484"/>
<stop offset="0.1517" stop-color="#FF7C77"/>
<stop offset="0.2909" stop-color="#FF606E"/>
<stop offset="0.4116" stop-color="#FF4E68"/>
<stop offset="0.5" stop-color="#FF4866"/>
<stop offset="0.6114" stop-color="#FB4768"/>
<stop offset="0.7099" stop-color="#F1456C"/>
<stop offset="0.8036" stop-color="#DF4274"/>
<stop offset="0.8943" stop-color="#AF8AFF"/>
<stop offset="1" stop-color="#702EFF"/>
</radialGradient>
<clipPath id="clip0_527_4917">
<rect width="38.1779" height="38.1779" fill="white" transform="translate(51.9111)"/>
</clipPath>
</defs>
</svg>
