<svg width="40" height="39" viewBox="0 0 40 39" fill="none" xmlns="http://www.w3.org/2000/svg">
<g clip-path="url(#clip0_527_4918)">
<path d="M38.7089 9.49973C38.3137 4.5038 34.5928 0.775489 29.5894 0.380288C23.132 -0.126763 16.861 -0.126763 10.4035 0.380288C5.40761 0.775489 1.6793 4.49634 1.2841 9.49973C0.777046 15.9572 0.777046 22.2282 1.2841 28.6856C1.6793 33.6816 5.40015 37.4099 10.4035 37.8051C16.861 38.3121 23.132 38.3121 29.5894 37.8051C34.5854 37.4099 38.3137 33.689 38.7089 28.6856C39.2159 22.2282 39.2159 15.9497 38.7089 9.49973Z" fill="url(#paint0_radial_527_4918)"/>
<path d="M20.1942 8.43359C14.4228 8.43359 9.7251 13.1313 9.7251 18.9027C9.7251 24.6741 14.4228 29.3718 20.1942 29.3718C25.9656 29.3718 30.6633 24.6741 30.6633 18.9027C30.6633 13.1313 25.9656 8.43359 20.1942 8.43359ZM20.1942 12.1843C20.9995 12.1843 21.775 12.326 22.4908 12.5869C22.5803 13.0492 22.6251 13.5116 22.6251 13.9888C22.6251 18.0377 19.3292 21.3335 15.2803 21.3335C14.8031 21.3335 14.3333 21.2888 13.8784 21.1993C13.6175 20.4835 13.4758 19.708 13.4758 18.9027C13.4758 15.1967 16.4883 12.1843 20.1942 12.1843ZM20.1942 25.6136C18.4344 25.6136 16.8313 24.9351 15.6307 23.8241C20.7833 23.6451 24.9366 19.4918 25.1156 14.3392C26.2266 15.5398 26.9052 17.1429 26.9052 18.9027C26.9052 22.6012 23.8927 25.6136 20.1942 25.6136Z" fill="white"/>
</g>
<defs>
<radialGradient id="paint0_radial_527_4918" cx="0" cy="0" r="1" gradientUnits="userSpaceOnUse" gradientTransform="translate(3.79967 3.54261) rotate(90) scale(44.7882)">
<stop stop-color="#FFA484"/>
<stop offset="0.1517" stop-color="#FF7C77"/>
<stop offset="0.2909" stop-color="#FF606E"/>
<stop offset="0.4116" stop-color="#FF4E68"/>
<stop offset="0.5" stop-color="#FF4866"/>
<stop offset="0.6114" stop-color="#FB4768"/>
<stop offset="0.7099" stop-color="#F1456C"/>
<stop offset="0.8036" stop-color="#DF4274"/>
<stop offset="0.8943" stop-color="#AF8AFF"/>
<stop offset="1" stop-color="#702EFF"/>
</radialGradient>
<clipPath id="clip0_527_4918">
<rect width="38.1779" height="38.1779" fill="white" transform="translate(0.911133)"/>
</clipPath>
</defs>
</svg>
